<svg width="293" height="48" viewBox="0 0 293 48" fill="none" xmlns="http://www.w3.org/2000/svg">
<g clip-path="url(#clip0_905_650)">
<mask id="mask0_905_650" style="mask-type:luminance" maskUnits="userSpaceOnUse" x="0" y="0" width="293" height="48">
<path d="M292.364 0H0V48H292.364V0Z" fill="white"/>
</mask>
<g mask="url(#mask0_905_650)">
<path fill-rule="evenodd" clip-rule="evenodd" d="M70.875 39.089H76.6717V7.59375H70.875V39.089Z" fill="white"/>
<path fill-rule="evenodd" clip-rule="evenodd" d="M90.0252 23.009C88.3935 23.009 87.069 23.5485 86.0525 24.6257C85.0369 25.7039 84.5291 27.0687 84.5291 28.7201C84.5291 30.3725 85.0369 31.7226 86.0525 32.7724C87.069 33.8222 88.3935 34.3473 90.0252 34.3473C90.7972 34.3473 91.5206 34.2076 92.1936 33.9272C92.8657 33.647 93.4454 33.2553 93.9326 32.7514C94.419 32.2476 94.8054 31.6533 95.092 30.9668C95.3776 30.2812 95.5214 29.5326 95.5214 28.7201C95.5214 27.9085 95.3776 27.1526 95.092 26.4524C94.8054 25.7531 94.419 25.1507 93.9326 24.6467C93.4454 24.1428 92.8657 23.7439 92.1936 23.4499C91.5206 23.1558 90.7972 23.009 90.0252 23.009ZM90.0252 17.8438C91.599 17.8438 93.0804 18.1239 94.4694 18.6835C95.8574 19.244 97.0672 20.0064 98.0977 20.9722C99.1282 21.938 99.944 23.0793 100.545 24.3948C101.146 25.7112 101.447 27.139 101.447 28.6781C101.447 30.2182 101.146 31.6532 100.545 32.9824C99.944 34.3125 99.1282 35.46 98.0977 36.4259C97.0672 37.3917 95.8574 38.1549 94.4694 38.7146C93.0804 39.2742 91.599 39.5545 90.0252 39.5545C88.4505 39.5545 86.9691 39.2742 85.5811 38.7146C84.1921 38.1549 82.9833 37.3917 81.9528 36.4259C80.9222 35.46 80.1129 34.3125 79.5267 32.9824C78.9396 31.6532 78.6465 30.2182 78.6465 28.6781C78.6465 27.139 78.9396 25.7112 79.5267 24.3948C80.1129 23.0793 80.9222 21.938 81.9528 20.9722C82.9833 20.0064 84.1846 19.244 85.5596 18.6835C86.9336 18.1239 88.4225 17.8438 90.0252 17.8438Z" fill="white"/>
<path fill-rule="evenodd" clip-rule="evenodd" d="M111.189 39.5789C110.61 39.5789 110.088 39.2558 109.836 38.7491L99.6797 18.2891H105.822L111.152 30.0473L116.556 18.2891H122.652L112.543 38.7464C112.291 39.2549 111.768 39.5789 111.189 39.5789Z" fill="white"/>
<path fill-rule="evenodd" clip-rule="evenodd" d="M131.933 22.4211C130.672 22.4211 129.584 22.7925 128.669 23.5338C127.752 24.276 127.123 25.3048 126.779 26.6203H136.527C136.468 25.2765 135.996 24.2413 135.109 23.5128C134.222 22.7852 133.162 22.4211 131.933 22.4211ZM132.146 17.8438C133.635 17.8438 134.994 18.0957 136.226 18.5996C137.457 19.1036 138.509 19.7901 139.382 20.6573C140.255 21.5255 140.928 22.547 141.4 23.7229C141.872 24.8987 142.108 26.1585 142.108 27.5023C142.108 28.0902 142.065 28.6644 141.979 29.224C141.894 29.7846 141.808 30.2465 141.722 30.6098H126.779C127.152 31.9536 127.867 32.9761 128.926 33.6754C129.986 34.3755 131.288 34.7252 132.834 34.7252C133.978 34.7252 135.03 34.5361 135.989 34.1582C136.949 33.7802 137.871 33.2691 138.759 32.6255L141.122 36.4888C139.918 37.4693 138.616 38.2316 137.213 38.7775C135.81 39.3235 134.293 39.5965 132.662 39.5965C130.972 39.5965 129.413 39.3162 127.981 38.7565C126.55 38.1969 125.32 37.4273 124.289 36.4468C123.259 35.4674 122.45 34.3199 121.864 33.0035C121.276 31.688 120.982 30.2593 120.982 28.7201C120.982 27.18 121.269 25.7532 121.841 24.4368C122.414 23.1213 123.2 21.9736 124.204 20.9932C125.205 20.0136 126.385 19.244 127.745 18.6835C129.105 18.1239 130.573 17.8438 132.146 17.8438Z" fill="white"/>
<path fill-rule="evenodd" clip-rule="evenodd" d="M157.908 23.0912H151.855V31.2799C151.855 32.4841 152.176 33.3239 152.821 33.7996C153.464 34.2761 154.459 34.5134 155.804 34.5134C156.148 34.5134 156.549 34.4998 157.007 34.4715C157.464 34.4432 157.979 34.4021 158.552 34.3455V39.0908C157.952 39.2313 157.321 39.3491 156.663 39.4477C156.005 39.5454 155.304 39.5947 154.559 39.5947C151.926 39.5947 149.85 38.9648 148.333 37.705C146.815 36.4452 146.058 34.4715 146.058 31.7839V23.0912H142.709V18.3039H146.058V13.0547H151.855V18.3039H157.908V23.0912Z" fill="white"/>
<path fill-rule="evenodd" clip-rule="evenodd" d="M166.84 20.0659C167.556 19.3666 168.399 18.8207 169.373 18.4281C170.346 18.0365 171.449 17.8402 172.679 17.8402C173.882 17.8402 174.969 18.0438 175.943 18.4491C176.915 18.8554 177.746 19.4223 178.433 20.1499C179.121 20.8784 179.649 21.7529 180.022 22.7745C180.394 23.7969 180.58 24.9371 180.58 26.1969V39.089H174.826V26.9948C174.826 25.7633 174.468 24.7828 173.754 24.0553C173.037 23.3277 172.079 22.9634 170.877 22.9634C169.674 22.9634 168.7 23.3341 167.957 24.0763C167.212 24.8175 166.84 25.7916 166.84 26.9948V39.089H161.043V7.59375H166.84V20.0659Z" fill="white"/>
<path fill-rule="evenodd" clip-rule="evenodd" d="M193.332 22.4211C192.072 22.4211 190.985 22.7925 190.069 23.5338C189.152 24.276 188.523 25.3048 188.18 26.6203H197.927C197.869 25.2765 197.396 24.2413 196.509 23.5128C195.622 22.7852 194.562 22.4211 193.332 22.4211ZM193.547 17.8438C195.035 17.8438 196.394 18.0957 197.626 18.5996C198.856 19.1036 199.908 19.7901 200.782 20.6573C201.655 21.5255 202.328 22.547 202.8 23.7229C203.272 24.8987 203.508 26.1585 203.508 27.5023C203.508 28.0902 203.466 28.6644 203.38 29.224C203.294 29.7846 203.207 30.2465 203.121 30.6098H188.18C188.551 31.9536 189.267 32.9761 190.326 33.6754C191.385 34.3755 192.688 34.7252 194.234 34.7252C195.378 34.7252 196.429 34.5361 197.39 34.1582C198.349 33.7802 199.271 33.2691 200.159 32.6255L202.521 36.4888C201.319 37.4693 200.016 38.2316 198.613 38.7775C197.21 39.3235 195.693 39.5965 194.061 39.5965C192.373 39.5965 190.813 39.3162 189.382 38.7565C187.95 38.1969 186.72 37.4273 185.689 36.4468C184.659 35.4674 183.849 34.3199 183.263 33.0035C182.676 31.688 182.383 30.2593 182.383 28.7201C182.383 27.18 182.668 25.7532 183.242 24.4368C183.814 23.1213 184.601 21.9736 185.603 20.9932C186.605 20.0136 187.786 19.244 189.146 18.6835C190.505 18.1239 191.972 17.8438 193.547 17.8438Z" fill="white"/>
<path fill-rule="evenodd" clip-rule="evenodd" d="M213.511 17.7969C216.666 17.7969 219.205 18.8467 221.156 20.9464L218.235 24.4319C217.553 23.7874 216.797 23.298 215.985 22.9621C215.163 22.6261 214.333 22.4582 213.474 22.4582C212.783 22.4582 212.232 22.5778 211.822 22.8151C211.402 23.0534 211.196 23.424 211.196 23.928C211.196 24.3479 211.374 24.6838 211.728 24.9358C212.092 25.1878 212.652 25.468 213.427 25.7757L215.49 26.6155C217.404 27.3714 218.879 28.2113 219.915 29.1352C220.942 30.059 221.455 31.3335 221.455 32.9566C221.455 34.0201 221.24 34.9659 220.811 35.7912C220.381 36.6174 219.793 37.3102 219.056 37.8699C218.309 38.4304 217.432 38.8567 216.414 39.1507C215.397 39.4446 214.314 39.5916 213.175 39.5916C211.28 39.5916 209.581 39.2283 208.06 38.4998C206.543 37.7722 205.313 36.7926 204.367 35.5602L207.285 32.1167C208.172 32.9849 209.105 33.6705 210.076 34.1744C211.047 34.6783 212.111 34.9303 213.259 34.9303C213.997 34.9303 214.641 34.7906 215.163 34.5104C215.696 34.231 215.957 33.7965 215.957 33.2086C215.957 32.7329 215.761 32.3687 215.359 32.1167C214.958 31.8648 214.426 31.5991 213.773 31.3188L211.495 30.395C210.58 30.0307 209.759 29.6537 209.049 29.2612C208.331 28.8695 207.733 28.4213 207.248 27.9174C206.758 27.4134 206.379 26.8465 206.107 26.2166C205.835 25.5867 205.699 24.8664 205.699 24.0539C205.699 23.0461 205.892 22.1569 206.278 21.3873C206.664 20.6178 207.21 19.9669 207.911 19.4346C208.611 18.9033 209.441 18.4971 210.403 18.2168C211.355 17.9375 212.4 17.7969 213.511 17.7969Z" fill="white"/>
<path fill-rule="evenodd" clip-rule="evenodd" d="M231.676 35.439C232.936 35.439 234 35.0612 234.877 34.3053C235.745 33.5494 236.184 32.5561 236.184 31.3237V31.0718H231.629C229.659 31.0718 228.67 31.7719 228.67 33.1713C228.67 33.8998 228.95 34.4596 229.51 34.8512C230.07 35.2428 230.789 35.439 231.676 35.439ZM232.833 17.8438C234.177 17.8438 235.409 18.0327 236.529 18.4107C237.64 18.7886 238.602 19.3491 239.404 20.0904C240.207 20.8326 240.833 21.7564 241.271 22.8619C241.719 23.9683 241.934 25.2629 241.934 26.7464V39.0924H236.66V37.0769C235.913 37.861 234.989 38.4762 233.888 38.9245C232.786 39.3718 231.535 39.5965 230.135 39.5965C228.987 39.5965 227.951 39.4348 227.036 39.1134C226.121 38.7921 225.347 38.3576 224.721 37.8116C224.087 37.2657 223.61 36.6149 223.284 35.859C222.948 35.1032 222.789 34.2779 222.789 33.3814C222.789 31.4771 223.508 29.9936 224.955 28.93C226.402 27.8665 228.371 27.3342 230.863 27.3342H236.184V26.4104C236.184 25.2628 235.857 24.3665 235.195 23.7229C234.541 23.0793 233.533 22.757 232.189 22.757C231.078 22.757 230.079 23.0089 229.211 23.5128C228.334 24.0167 227.456 24.717 226.57 25.6126L223.601 22.1271C226.009 19.2715 229.081 17.8438 232.833 17.8438Z" fill="white"/>
<path fill-rule="evenodd" clip-rule="evenodd" d="M244.08 39.089H249.877V7.59375H244.08V39.089Z" fill="white"/>
<path fill-rule="evenodd" clip-rule="evenodd" d="M262.805 22.4211C261.545 22.4211 260.462 22.7925 259.538 23.5338C258.623 24.276 257.998 25.3048 257.652 26.6203H267.397C267.341 25.2765 266.865 24.2413 265.979 23.5128C265.092 22.7852 264.037 22.4211 262.805 22.4211ZM263.02 17.8438C264.513 17.8438 265.867 18.0957 267.099 18.5996C268.331 19.1036 269.386 19.7901 270.254 20.6573C271.131 21.5255 271.803 22.547 272.27 23.7229C272.746 24.8987 272.98 26.1585 272.98 27.5023C272.98 28.0902 272.942 28.6644 272.849 29.224C272.765 29.7846 272.681 30.2465 272.597 30.6098H257.652C258.026 31.9536 258.744 32.9761 259.799 33.6754C260.854 34.3755 262.161 34.7252 263.71 34.7252C264.849 34.7252 265.904 34.5361 266.865 34.1582C267.818 33.7802 268.742 33.2691 269.628 32.6255L271.99 36.4888C270.795 37.4693 269.488 38.2316 268.088 38.7775C266.688 39.3235 265.167 39.5965 263.533 39.5965C261.843 39.5965 260.285 39.3162 258.856 38.7565C257.419 38.1969 256.196 37.4273 255.16 36.4468C254.133 35.4674 253.321 34.3199 252.733 33.0035C252.145 31.688 251.855 30.2593 251.855 28.7201C251.855 27.18 252.145 25.7532 252.714 24.4368C253.284 23.1213 254.077 21.9736 255.076 20.9932C256.075 20.0136 257.26 19.244 258.623 18.6835C259.977 18.1239 261.442 17.8438 263.02 17.8438Z" fill="white"/>
<path fill-rule="evenodd" clip-rule="evenodd" d="M282.988 17.7969C286.133 17.7969 288.682 18.8467 290.633 20.9464L287.711 24.4319C287.02 23.7874 286.273 23.298 285.452 22.9621C284.64 22.6261 283.8 22.4582 282.941 22.4582C282.26 22.4582 281.709 22.5778 281.289 22.8151C280.878 23.0534 280.673 23.424 280.673 23.928C280.673 24.3479 280.85 24.6838 281.205 24.9358C281.559 25.1878 282.129 25.468 282.904 25.7757L284.967 26.6155C286.88 27.3714 288.355 28.2113 289.382 29.1352C290.418 30.059 290.931 31.3335 290.931 32.9566C290.931 34.0201 290.717 34.9659 290.287 35.7912C289.858 36.6174 289.27 37.3102 288.523 37.8699C287.786 38.4304 286.899 38.8567 285.881 39.1507C284.873 39.4446 283.79 39.5916 282.642 39.5916C280.757 39.5916 279.049 39.2283 277.536 38.4998C276.015 37.7722 274.783 36.7926 273.84 35.5602L276.762 32.1167C277.648 32.9849 278.582 33.6705 279.553 34.1744C280.523 34.6783 281.587 34.9303 282.726 34.9303C283.473 34.9303 284.108 34.7906 284.64 34.5104C285.172 34.231 285.433 33.7965 285.433 33.2086C285.433 32.7329 285.237 32.3687 284.836 32.1167C284.434 31.8648 283.902 31.5991 283.249 31.3188L280.971 30.395C280.057 30.0307 279.235 29.6537 278.526 29.2612C277.807 28.8695 277.2 28.4213 276.715 27.9174C276.229 27.4134 275.856 26.8465 275.576 26.2166C275.305 25.5867 275.175 24.8664 275.175 24.0539C275.175 23.0461 275.361 22.1569 275.753 21.3873C276.136 20.6178 276.687 19.9669 277.387 19.4346C278.087 18.9033 278.918 18.4971 279.87 18.2168C280.831 17.9375 281.868 17.7969 282.988 17.7969Z" fill="white"/>
<path opacity="0.5" d="M4.39439 5.00119C-0.48317 9.77141 -1.30754 17.0275 1.92126 22.6376C2.40215 23.4774 2.95173 24.25 3.60437 25.0227C5.49356 26.4336 8.20714 26.2992 9.95894 24.6196L27.8548 7.11756L25.7251 5.03479C19.8515 -0.776818 10.3024 -0.776818 4.39439 5.00119Z" fill="white"/>
<path d="M29.8138 5.17227L9.96004 24.5891C8.24259 26.2687 5.52902 26.4031 3.60547 24.9922C3.63982 25.0258 3.67416 25.093 3.74286 25.1266C3.81156 25.2274 3.91461 25.2945 3.98331 25.3953C4.12071 25.5297 4.2581 25.6641 4.3955 25.832L25.4515 46.4246C26.7911 47.7347 28.9551 47.7347 30.2947 46.4246L51.3506 25.832C57.293 20.0204 57.2243 10.5472 51.1789 4.80275C45.2022 -0.807304 35.6875 -0.572154 29.8138 5.17227ZM43.4847 18.1728C41.939 19.6845 39.3972 19.6845 37.8515 18.1728C36.3058 16.6611 36.3058 14.1752 37.8515 12.6635C39.3972 11.1518 41.939 11.1518 43.4847 12.6635C45.0304 14.1752 45.0304 16.6611 43.4847 18.1728Z" fill="white"/>
</g>
</g>
<defs>
<clipPath id="clip0_905_650">
<rect width="293" height="48" fill="white"/>
</clipPath>
</defs>
</svg>
