<svg width="284" height="54" viewBox="0 0 284 54" fill="none" xmlns="http://www.w3.org/2000/svg">
<g clip-path="url(#clip0_905_620)">
<g clip-path="url(#clip1_905_620)">
<mask id="mask0_905_620" style="mask-type:luminance" maskUnits="userSpaceOnUse" x="0" y="0" width="284" height="54">
<path d="M284 0H0V54H284V0Z" fill="white"/>
</mask>
<g mask="url(#mask0_905_620)">
<path fill-rule="evenodd" clip-rule="evenodd" d="M172.888 11.7173C166.044 11.7173 160.432 16.8898 160.432 27.4594C160.432 38.0291 165.988 43.027 172.778 43.027C177.209 43.027 180.296 40.6695 182.822 37.9709C182.822 39.58 183.159 41.4219 183.496 42.5114H186.412C185.738 40.9604 185.514 38.7193 185.514 35.0437V0H182.822V16.7734C180.462 14.0707 176.929 11.7173 172.888 11.7173ZM182.822 19.5343V35.2141L182.818 35.2183C179.508 38.6653 176.815 40.6194 172.831 40.6194C167.669 40.6194 163.124 36.657 163.124 27.4054C163.124 18.1539 167.559 14.1331 172.721 14.1331C176.539 14.1331 179.512 16.0873 182.822 19.5343ZM90.7365 1.1476H93.6525V4.65279H90.7365V1.1476ZM90.8499 12.3493H93.5425V42.5114H90.8499V12.3534V12.3493ZM59.4239 12.3535H62.3966L71.7135 39.0644H71.8269L81.0828 12.3535H83.9988L73.0575 42.686H70.3649L59.4239 12.3535ZM103.363 12.3535H100.39L111.335 42.686H114.028L124.969 12.3535H122.053L112.793 39.0686H112.679L103.363 12.3535ZM128.388 27.4594C128.388 17.7505 134.058 11.7173 141.352 11.7173C148.646 11.7173 154.315 17.7505 154.315 27.4594C154.315 37.1684 148.593 43.1436 141.352 43.1436C134.111 43.1436 128.388 37.052 128.388 27.4594ZM151.619 27.4012C151.619 20.3908 148.029 14.1289 141.352 14.1289C134.675 14.1289 131.081 19.8753 131.081 27.4012C131.081 34.4657 134.618 40.7318 141.352 40.7318C147.692 40.7318 151.619 35.0437 151.619 27.4012ZM191.07 53.4844L191.744 51.1849C192.585 51.4135 193.71 51.5885 195.448 51.5885C198.986 51.5885 200.724 49.9792 202.068 46.416L203.469 42.6821L192.02 12.3493H194.993L204.757 39.1767H204.87L214.633 12.3493H217.554L204.813 46.0707C202.795 51.4719 200.715 54 195.107 54C193.369 54 192.187 53.8297 191.066 53.4844H191.07ZM226.76 12.3534H224.068V42.5157H226.76V19.8794C230.412 16.316 233.831 14.1331 237.929 14.1331C242.417 14.1331 244.382 16.3742 244.382 20.9688V42.5157H247.075V20.6278C247.075 15.1684 244.269 11.7214 238.152 11.7214C233.831 11.7214 230.013 14.1913 226.76 17.3513V12.3534ZM254.54 27.4054C254.54 16.948 260.769 11.7214 267.052 11.7214C274.009 11.7214 278.724 17.6965 278.724 27.1767V27.58H257.232C257.232 35.7962 261.663 40.7361 267.109 40.7361C271.71 40.7361 274.346 38.4948 276.592 34.474L278.558 35.738C276.146 40.2785 272.665 43.1476 266.943 43.1476C260.323 43.1476 254.54 37.3431 254.54 27.4054ZM275.918 25.2806C275.524 19.0769 272.665 14.1372 266.996 14.1372C262.394 14.1372 258.016 17.8129 257.289 25.2806H275.918ZM281.437 11.6798C279.983 11.6798 278.854 12.8399 278.854 14.3326C278.854 15.817 279.967 16.9564 281.417 16.9564C282.867 16.9564 284 15.7879 284 14.3035C284 12.8191 282.891 11.6798 281.437 11.6798ZM281.417 12.1621C282.603 12.1621 283.484 13.0977 283.484 14.3326C283.484 15.5634 282.623 16.4782 281.437 16.4782C280.251 16.4782 279.37 15.5384 279.37 14.3077C279.37 13.0769 280.231 12.1621 281.417 12.1621ZM281.498 12.8274H280.41V15.6923H281.076V14.6819H281.417L281.912 15.6923H282.619L282.071 14.5946C282.38 14.4657 282.587 14.2162 282.587 13.763C282.587 13.131 282.176 12.8274 281.498 12.8274ZM281.929 13.8004C281.929 14.0707 281.774 14.1871 281.458 14.1871H281.076V13.4304H281.458C281.774 13.4304 281.929 13.5302 281.929 13.8004ZM22.7663 46.511C33.2087 46.511 41.6739 37.8639 41.6739 27.1971C41.6739 16.5303 33.2087 7.88321 22.7663 7.88321C12.3239 7.88321 3.8587 16.5303 3.8587 27.1971C3.8587 37.8639 12.3239 46.511 22.7663 46.511ZM22.7663 50.4526C35.3398 50.4526 45.5326 40.0408 45.5326 27.1971C45.5326 14.3534 35.3398 3.94161 22.7663 3.94161C10.1928 3.94161 0 14.3534 0 27.1971C0 40.0408 10.1928 50.4526 22.7663 50.4526ZM21.395 17.3431H13.5054V21.5445H21.395V17.3431ZM13.5054 24.9625H21.395V29.1639H13.5054V24.9625ZM13.5054 32.5819H21.395V36.7834H13.5054V32.5819ZM24.507 17.3431H32.3966V21.5445H24.507V17.3431ZM32.3966 24.9625H24.507V29.1639H32.3966V24.9625ZM32.3966 32.5819H24.507V36.7834H32.3966V32.5819Z" fill="white"/>
</g>
</g>
</g>
<defs>
<clipPath id="clip0_905_620">
<rect width="284" height="54" fill="white"/>
</clipPath>
<clipPath id="clip1_905_620">
<rect width="284" height="54" fill="white"/>
</clipPath>
</defs>
</svg>
